<?xml version="1.0" encoding="UTF-8" standalone="no"?>
<!-- Created with Inkscape (http://www.inkscape.org/) -->

<svg
   xmlns:dc="http://purl.org/dc/elements/1.1/"
   xmlns:cc="http://creativecommons.org/ns#"
   xmlns:rdf="http://www.w3.org/1999/02/22-rdf-syntax-ns#"
   xmlns:svg="http://www.w3.org/2000/svg"
   xmlns="http://www.w3.org/2000/svg"
   xmlns:xlink="http://www.w3.org/1999/xlink"
   xmlns:sodipodi="http://sodipodi.sourceforge.net/DTD/sodipodi-0.dtd"
   xmlns:inkscape="http://www.inkscape.org/namespaces/inkscape"
   id="svg2"
   viewBox="0 0 670 774"
   version="1.1"
   inkscape:version="0.91 r13725"
   sodipodi:docname="pmxplore.svg">
  <defs
     id="defs5391" />
  <sodipodi:namedview
     pagecolor="#ffffff"
     bordercolor="#666666"
     borderopacity="1"
     objecttolerance="10"
     gridtolerance="10"
     guidetolerance="10"
     inkscape:pageopacity="0"
     inkscape:pageshadow="2"
     inkscape:window-width="1680"
     inkscape:window-height="985"
     id="namedview5389"
     showgrid="true"
     inkscape:showpageshadow="false"
     inkscape:zoom="0.68723653"
     inkscape:cx="-81.40471"
     inkscape:cy="406.40311"
     inkscape:window-x="0"
     inkscape:window-y="0"
     inkscape:window-maximized="1"
     inkscape:current-layer="svg2">
    <inkscape:grid
       type="xygrid"
       id="grid5933" />
  </sodipodi:namedview>
  <metadata
     id="metadata7">
    <rdf:RDF>
      <cc:Work
         rdf:about="">
        <dc:format>image/svg+xml</dc:format>
        <dc:type
           rdf:resource="http://purl.org/dc/dcmitype/StillImage" />
        <dc:title></dc:title>
      </cc:Work>
    </rdf:RDF>
  </metadata>
  <path
     style="fill:#5eb5ff;fill-opacity:1;fill-rule:evenodd;stroke:#326088;stroke-width:38.01699829;stroke-opacity:1"
     inkscape:connector-curvature="0"
     d="M 335.01048,752.05573 19.005703,569.49803 19.005693,204.46268 335.01047,21.94501 l 316.00477,182.51767 1e-5,365.03535 z"
     id="path2997" />
  <g
     transform="matrix(2.4477,0,0,2.4477,-32.01,-49.69)"
     stroke="null"
     id="svg_147">
    <path
       style="fill:#bca36a"
       inkscape:connector-curvature="0"
       d="m 179.11,74.233 -1.9308,-2.4245 -0.88495,-1.0506 -1.0459,-0.88897 c -4.4972,-3.8993 -10.563,-2.908 -15.768,-1.2122 l -4.103,1.2122 -2.0917,0.56571 c -5.6624,1.1584 -11.605,0.528 -13.918,-5.5763 l -0.3218,-1.6163 -0.16091,-1.5355 0.32181,-1.5355 0.56315,-1.6163 c 2.1534,-5.3917 10.311,-6.7548 15.366,-5.3338 l 2.494,0.48489 2.2526,0.72734 c 6.9013,2.2857 12.385,7.0458 16.251,13.173 l 1.2068,2.1012 1.7699,4.5257"
       id="svg_129" />
    <path
       style="fill:#444492;fill-rule:evenodd"
       inkscape:connector-curvature="0"
       d="m 179.43,75.122 0.3218,1.8588 0.56315,2.1012 c 1.306,10.418 -2.6468,21.395 -10.941,27.962 l -2.4135,1.9396 -2.4135,1.3739 c -9.1486,5.1776 -20.972,5.0388 -30.008,-0.32326 l -2.0917,-1.3739 -2.0917,-1.6163 1.609,0.56571 1.6895,0.32326 c 8.2341,1.2944 15.228,-1.0708 20.113,-8.0007 l 1.9308,-3.1518 1.5286,-3.071 c 3.8348,-8.6284 6.6425,-18.146 17.538,-18.992 l 2.2526,0 2.4135,0.40408"
       id="svg_128" />
    <path
       style="fill:#acb317;fill-rule:evenodd"
       inkscape:connector-curvature="0"
       d="m 138.73,104.62 -1.609,0.72734 c -12.63,3.18 -18.75,-14.089 -17.78,-23.843 l 0.1609,-1.6971 1.2068,1.5355 1.3676,1.3739 c 5.6811,5.9709 10.869,5.5237 17.538,9.213 l 0.6436,0.72734 0.56315,0.64652 c 2.4108,3.0643 1.8852,7.2694 -0.56315,10.102 l -0.88495,0.56571 -0.64361,0.64653"
       id="svg_127" />
  </g>
  <text
     sodipodi:linespacing="125%"
     line-height="125%"
     font-size="117.5px"
     xml:space="preserve"
     style="font-size:117.5px;line-height:125%;font-family:'Berlin Sans FB';text-align:center;letter-spacing:0px;word-spacing:0px;writing-mode:lr-tb;text-anchor:middle;fill:#000000"
     id="text4129"
     y="-278.35999"><textPath
       startOffset="50%"
       xlink:href="#path5073"
       id="textPath5243">PMXPLORE</textPath></text>
  <g
     transform="matrix(0.60684,0,0,0.59646,180.6,231.14)"
     id="g4415">
    <g
       id="g4305">
      <g
         id="g4307">
        <path
           style="fill:#5c546a"
           inkscape:connector-curvature="0"
           d="m 336.8,236.65 -16.969,-16.969 c -3.125,-3.125 -8.188,-3.125 -11.312,0 l -32,32 c -3.125,3.125 -3.125,8.188 0,11.313 l 16.969,16.969 c 3.117,3.117 7.219,4.68 11.313,4.68 4.102,0 8.203,-1.563 11.32,-4.68 l 20.672,-20.68 c 3.023,-3.016 4.695,-7.031 4.695,-11.305 -10e-4,-4.282 -1.665,-8.305 -4.688,-11.328 z"
           id="path4309" />
      </g>
      <g
         id="g4311">
        <g
           id="g4313">
          <path
             style="fill:#868491"
             inkscape:connector-curvature="0"
             d="m 304.6,181.05 c -2.742,-0.656 -5.594,0.141 -7.563,2.117 L 240.404,239.8 c -1.969,1.961 -2.773,4.805 -2.125,7.508 0.641,2.703 2.641,4.883 5.281,5.75 l 38.617,15.586 43.312,-43.312 -15.164,-38.906 c -0.842,-2.673 -3.014,-4.704 -5.725,-5.376 z"
             id="path4315" />
        </g>
        <g
           id="g4317">
          <path
             style="fill:#5c546a"
             inkscape:connector-curvature="0"
             d="m 243.56,253.06 38.617,15.586 21.5,-21.5 -35.309,-35.309 -27.965,27.965 c -1.969,1.961 -2.773,4.805 -2.125,7.508 0.641,2.703 2.641,4.882 5.282,5.75 z"
             id="path4319" />
        </g>
      </g>
      <g
         id="g4321">
        <path
           style="fill:#5c546a"
           inkscape:connector-curvature="0"
           d="m 157.08,77.962 -22.586,22.586 c -0.391,0.391 -1.024,0.391 -1.414,0 L 77.807,45.274 c -0.391,-0.391 -0.391,-1.024 0,-1.414 l 22.586,-22.586 c 0.391,-0.391 1.024,-0.391 1.414,0 l 55.272,55.272 c 0.39,0.39 0.39,1.023 0,1.414 z"
           id="path4323" />
      </g>
      <g
         id="g4325">
        <g
           id="g4327">
          <path
             style="fill:#5c546a"
             inkscape:connector-curvature="0"
             d="m 344.16,412.57 -34.75,0 c -4.422,0 -8,-3.578 -8,-8 0,-4.422 3.578,-8 8,-8 l 34.75,0 c 4.211,0 8.336,-1.711 11.313,-4.688 l 18.63,-18.62 c 3.125,-3.125 8.188,-3.125 11.313,0 3.125,3.125 3.125,8.188 0,11.313 L 366.791,403.2 c -5.954,5.961 -14.204,9.375 -22.626,9.375 z"
             id="path4329" />
        </g>
      </g>
      <g
         id="g4331">
        <path
           style="fill:#868491"
           inkscape:connector-curvature="0"
           d="m 184.63,212.57 c -2.133,8.7 -3.221,17.722 -3.221,26.948 0,49.864 32.754,92.221 77.877,106.69 l -13.839,45.972 c -64.86,-20.43 -112.04,-81.14 -112.04,-152.67 0,-14.586 2.012,-29.039 5.89,-42.944 l 45.331,15.996 z"
           id="path4333" />
      </g>
      <g
         id="g4335">
        <path
           style="fill:#5c546a"
           inkscape:connector-curvature="0"
           d="m 433.69,246.91 -22.625,-22.625 c -3.125,-3.125 -8.188,-3.125 -11.312,0 l -111.31,111.32 c -2.453,2.453 -3.047,6.211 -1.469,9.297 l 15.313,29.938 c 1.164,2.281 3.352,3.867 5.883,4.266 0.414,0.063 0.828,0.094 1.242,0.094 2.102,0 4.148,-0.828 5.656,-2.344 l 118.63,-118.63 c 3.125,-3.126 3.125,-8.189 0,-11.314 z"
           id="path4337" />
      </g>
      <g
         id="g4339">
        <path
           style="fill:#868491"
           inkscape:connector-curvature="0"
           d="m 449.69,326.91 -22.625,-22.625 c -3.125,-3.125 -8.188,-3.125 -11.313,0 l -54.625,54.625 c -3.125,3.125 -3.125,8.188 0,11.313 l 22.625,22.625 c 1.563,1.563 3.609,2.344 5.656,2.344 2.047,0 4.094,-0.781 5.656,-2.344 l 54.625,-54.625 c 3.126,-3.125 3.126,-8.188 10e-4,-11.313 z"
           id="path4341" />
      </g>
      <g
         id="g4343">
        <path
           style="fill:#b4b6bc"
           inkscape:connector-curvature="0"
           d="m 277.41,332.57 c -22.055,0 -40,17.945 -40,40 l 0,88 c 0,4.422 3.578,8 8,8 4.422,0 8,-3.578 8,-8 l 48,0 c 0,4.422 3.578,8 8,8 4.422,0 8,-3.578 8,-8 l 0,-88 c 0,-22.054 -17.945,-40 -40,-40 z"
           id="path4345" />
      </g>
      <g
         id="g4347">
        <path
           style="fill:#b4b6bc"
           inkscape:connector-curvature="0"
           d="M 308.34,183.16 190.95,66.22 c -9.352,-9.336 -24.57,-9.355 -33.938,0.004 l -33.945,33.941 c -4.531,4.535 -7.031,10.563 -7.031,16.973 0,6.41 2.5,12.437 7.031,16.969 l 12.688,12.684 c 3.125,3.125 8.187,3.125 11.311,0.001 l 52.128,52.126 c -0.007,0.007 -0.018,0.01 -0.025,0.017 -3.109,3.133 -3.094,8.203 0.047,11.313 l 41.211,40.891 c 1.555,1.547 3.594,2.32 5.633,2.32 2.047,0 4.094,-0.781 5.656,-2.344 l 56.633,-56.633 c 1.5,-1.5 2.344,-3.539 2.344,-5.664 0,-2.125 -0.852,-4.165 -2.352,-5.657 z"
           id="path4349" />
      </g>
      <g
         id="g4351">
        <path
           style="fill:#868491"
           inkscape:connector-curvature="0"
           d="m 199.22,210.25 41.211,40.891 c 1.555,1.547 3.594,2.32 5.633,2.32 2.047,0 4.094,-0.781 5.656,-2.344 l 27.96,-27.97 -139.8,-139.8 -16.81,16.82 c -4.531,4.535 -7.031,10.563 -7.031,16.973 0,6.41 2.5,12.437 7.031,16.969 l 12.688,12.684 c 3.125,3.125 8.187,3.125 11.311,0.001 l 52.128,52.126 c -0.007,0.007 -0.018,0.01 -0.025,0.017 -3.11,3.132 -3.095,8.203 0.046,11.312 z"
           id="path4353" />
      </g>
      <g
         id="g4355">
        <path
           style="fill:#868491"
           inkscape:connector-curvature="0"
           d="m 333.41,452.57 -112,0 c -17.648,0 -32,14.352 -32,32 l 0,16 c 0,4.422 3.578,8 8,8 l 160,0 c 4.422,0 8,-3.578 8,-8 l 0,-16 c 0,-17.648 -14.351,-32 -32,-32 z"
           id="path4357" />
      </g>
      <g
         id="g4359">
        <circle
           style="fill:#5c546a"
           r="48"
           cx="173.41"
           cy="172.57001"
           id="circle4361" />
      </g>
      <g
         id="g4363">
        <circle
           style="fill:#868491"
           r="24"
           cx="173.41"
           cy="172.57001"
           id="circle4365" />
      </g>
      <g
         id="g4367">
        <circle
           style="fill:#5c546a"
           r="16"
           cx="277.10001"
           cy="372.57001"
           id="circle4369" />
      </g>
      <g
         id="g4371">
        <path
           style="fill:#868491"
           inkscape:connector-curvature="0"
           d="M 115.44,24.971 81.502,58.912 c -3.124,3.124 -8.19,3.124 -11.314,0 L 58.874,47.598 c -3.124,-3.124 -3.124,-8.19 0,-11.314 L 92.816,2.343 c 3.124,-3.124 8.19,-3.124 11.314,0 l 11.314,11.314 c 3.123,3.124 3.123,8.189 -0.001,11.314 z"
           id="path4373" />
      </g>
      <g
         id="g4375">
        <path
           style="fill:#5c546a"
           inkscape:connector-curvature="0"
           d="m 75.845,19.314 -16.971,16.97 c -3.124,3.124 -3.124,8.189 0,11.313 l 11.314,11.314 c 3.124,3.124 8.189,3.124 11.313,0 L 98.472,41.94 75.845,19.314 Z"
           id="path4377" />
      </g>
    </g>
  </g>
  <path
     style="display:none;fill:none;stroke:#000000;stroke-width:0.98970997px"
     inkscape:connector-curvature="0"
     display="none"
     d="m 55.037,547.13 c 84.021,50.47 181.95,77.518 279.96,77.327 98.133,-0.19176 196.07,-27.69 279.96,-78.605"
     id="path5073" />
</svg>
