<?xml version="1.0" encoding="UTF-8" standalone="no"?>
<!-- Created with Inkscape (http://www.inkscape.org/) -->

<svg
   xmlns:dc="http://purl.org/dc/elements/1.1/"
   xmlns:cc="http://creativecommons.org/ns#"
   xmlns:rdf="http://www.w3.org/1999/02/22-rdf-syntax-ns#"
   xmlns:svg="http://www.w3.org/2000/svg"
   xmlns="http://www.w3.org/2000/svg"
   xmlns:sodipodi="http://sodipodi.sourceforge.net/DTD/sodipodi-0.dtd"
   xmlns:inkscape="http://www.inkscape.org/namespaces/inkscape"
   id="svg2"
   viewBox="0 0 670 774"
   version="1.1"
   inkscape:version="0.91 r13725"
   sodipodi:docname="pmxplore.svg">
  <defs
     id="defs5391" />
  <sodipodi:namedview
     pagecolor="#ffffff"
     bordercolor="#666666"
     borderopacity="1"
     objecttolerance="10"
     gridtolerance="10"
     guidetolerance="10"
     inkscape:pageopacity="0"
     inkscape:pageshadow="2"
     inkscape:window-width="1680"
     inkscape:window-height="1021"
     id="namedview5389"
     showgrid="true"
     inkscape:showpageshadow="false"
     inkscape:zoom="1.345645"
     inkscape:cx="246.35486"
     inkscape:cy="216.72422"
     inkscape:window-x="1680"
     inkscape:window-y="0"
     inkscape:window-maximized="1"
     inkscape:current-layer="svg2">
    <inkscape:grid
       type="xygrid"
       id="grid5933" />
  </sodipodi:namedview>
  <metadata
     id="metadata7">
    <rdf:RDF>
      <cc:Work
         rdf:about="">
        <dc:format>image/svg+xml</dc:format>
        <dc:type
           rdf:resource="http://purl.org/dc/dcmitype/StillImage" />
        <dc:title />
      </cc:Work>
    </rdf:RDF>
  </metadata>
  <path
     style="fill:#5eb5ff;fill-opacity:1;fill-rule:evenodd;stroke:#326088;stroke-width:38.01699829;stroke-opacity:1"
     inkscape:connector-curvature="0"
     d="M 335.01048,752.05573 19.005703,569.49803 19.005693,204.46268 335.01047,21.94501 l 316.00477,182.51767 1e-5,365.03535 z"
     id="path2997" />
  <path
     style="font-size:117.5px;line-height:125%;font-family:'Berlin Sans FB';text-align:center;letter-spacing:0px;word-spacing:0px;writing-mode:lr-tb;text-anchor:middle;fill:#000000"
     d="m 571.18555,479.52148 c -0.5607,-0.0184 -1.23772,0.18115 -2.03321,0.59961 -2.26799,1.19308 -5.63484,3.05071 -10.09961,5.57227 -4.43091,2.50375 -7.78083,4.35184 -10.04882,5.54492 -2.36955,1.2465 -5.95921,3.04866 -10.76953,5.40625 -4.81033,2.3576 -8.39999,4.15975 -10.76954,5.40625 -0.91396,0.48079 -1.15044,1.10057 -0.70703,1.86133 l 0.42578,0.68359 c 3.13599,5.222 5.44914,9.16936 6.94141,11.8418 5.94423,10.31388 9.93288,17.40079 11.96289,21.25977 1.9944,3.79127 4.7733,9.61108 8.33984,17.45898 3.58259,7.79624 6.37279,13.58958 8.36719,17.38086 0.51641,0.98167 1.33215,1.17943 2.44922,0.5918 2.4711,-1.29992 6.15963,-3.32703 11.06445,-6.08008 4.90483,-2.75305 8.5914,-4.77821 11.0625,-6.07813 8.73348,-4.59424 15.34397,-7.6827 19.82813,-9.26367 1.01905,-0.3632 1.69665,-0.63443 2.03516,-0.8125 0.71086,-0.37395 0.99111,-0.90907 0.83984,-1.60742 -0.85634,-2.53158 -1.55425,-4.43303 -2.09375,-5.70508 -0.0748,-0.30642 -0.29791,-1.18427 -0.66992,-2.63086 -0.26341,-1.15798 -0.53735,-2.00722 -0.82227,-2.54883 -0.48079,-0.91396 -1.04219,-1.15822 -1.68359,-0.73437 l -0.73438,0.45117 c -10.5064,6.56412 -16.9449,10.46835 -19.31445,11.71484 l -5.55859,2.99024 c -3.38507,1.78071 -5.68799,2.53717 -6.90821,2.27148 -1.5462,-0.31029 -3.24571,-2.22562 -5.09765,-5.74609 l -3.95313,-7.51367 c -1.4958,-2.84346 -2.19822,-4.13953 -2.10742,-3.88477 -0.49137,-1.42702 -0.0858,-2.54749 1.21484,-3.36133 1.4182,-0.91891 4.91855,-2.84698 10.50391,-5.78515 6.63473,-3.4902 10.95455,-5.63169 12.95703,-6.42578 2.73115,-1.1342 4.29887,-1.8078 4.70508,-2.02149 1.01552,-0.53421 1.3635,-1.10748 1.04297,-1.7168 -0.58764,-1.11707 -1.35075,-2.85409 -2.28907,-5.21289 -0.90446,-2.3766 -1.6411,-4.10623 -2.21093,-5.18945 -0.35615,-0.67701 -0.87163,-0.79517 -1.54688,-0.35351 -2.66715,1.74879 -5.01564,3.19958 -7.04492,4.35351 -5.15606,3.01487 -11.05276,6.26762 -17.6875,9.75781 l -1.72461,0.90821 c -0.72691,0.4256 -1.29496,0.7453 -1.70117,0.95898 -1.45558,0.76571 -2.61012,0.70356 -3.4668,-0.18555 -0.27962,-0.28508 -0.96259,-1.45854 -2.04883,-3.52343 l -3.98046,-7.56641 c -1.54922,-2.94501 -2.16482,-4.97704 -1.84571,-6.0957 0.35296,-1.13647 1.91761,-2.43435 4.69336,-3.89453 2.94501,-1.54922 7.41758,-3.68584 13.41797,-6.41016 6.01643,-2.77598 10.46254,-4.92194 13.33984,-6.43555 0.74472,-0.39175 0.91347,-0.97534 0.50391,-1.7539 -0.56983,-1.08323 -2.38586,-3.67324 -5.44727,-7.76758 -0.3259,-0.45522 -0.76938,-0.69061 -1.33007,-0.70899 z m -474.228519,0.84766 c -0.316955,0.0749 -0.560755,0.30378 -0.734375,0.6875 l -0.339844,0.79297 c -5.421149,12.60493 -10.836125,24.22738 -16.24414,34.86523 -1.906672,3.75053 -4.937496,9.28947 -9.091797,16.61719 -4.120205,7.34505 -7.124333,12.87537 -9.013672,16.5918 -0.537335,1.05696 -0.379736,1.80104 0.472656,2.23437 0.579627,0.29467 1.492932,0.69484 2.738282,1.19922 1.245349,0.50438 2.173386,0.91261 2.787109,1.22461 0.71601,0.364 1.748398,0.99605 3.09375,1.89453 1.396782,0.88172 2.451959,1.50319 3.167969,1.86719 0.647818,0.32933 1.119395,0.20463 1.414062,-0.375 0.91867,-1.80707 2.176722,-4.57702 3.775391,-8.3125 1.632764,-3.71814 2.909456,-6.48199 3.828125,-8.28906 0.710669,-1.39793 1.612062,-1.81834 2.703125,-1.26367 1.97755,1.00533 4.882458,2.58813 8.716797,4.75195 3.885767,2.14705 6.800681,3.71512 8.744141,4.70312 7.9102,4.02135 15.35606,4.69664 22.33594,2.02344 6.77416,-2.60615 12.19618,-7.9172 16.26953,-15.92969 3.83068,-7.53515 4.65028,-15.01218 2.45898,-22.43359 -2.24158,-7.5757 -7.12891,-13.2787 -14.66406,-17.10937 -1.6025,-0.81467 -4.04012,-1.96994 -7.31445,-3.4629 -3.27433,-1.49295 -5.71391,-2.64626 -7.31641,-3.46093 -1.87526,-0.95334 -4.66223,-2.39102 -8.36133,-4.31446 -3.665,-1.9061 -6.418595,-3.32767 -8.259763,-4.26367 -0.460292,-0.234 -0.84906,-0.31314 -1.166016,-0.23828 z m 7.900389,17.62891 c 0.27505,-0.20344 2.78381,0.72768 7.52539,2.79492 4.16196,1.77257 7.0273,3.05813 8.59571,3.85547 5.04616,2.56534 8.18717,6.17884 9.42187,10.83984 1.20175,4.47262 0.50235,9.26651 -2.09766,14.38086 -2.444,4.80749 -5.62898,7.99204 -9.55664,9.55664 -4.16747,1.61432 -8.63871,1.20792 -13.41211,-1.21875 -8.523921,-4.33334 -13.627899,-7.1638 -15.312496,-8.49219 -0.663438,-0.55181 -0.917719,-0.98024 -0.761718,-1.28711 0.728002,-1.43202 1.769329,-3.60739 3.123046,-6.52343 1.387813,-2.89871 2.445827,-5.06408 3.173829,-6.4961 5.754679,-11.31977 8.854109,-17.12234 9.300779,-17.41015 z m 47.70508,10.8789 c -0.87163,-0.16532 -1.41985,0.0966 -1.64648,0.78711 -1.37173,4.17924 -3.25453,10.52691 -5.64649,19.04102 -2.34369,8.48969 -4.20054,14.82466 -5.57226,19.0039 -1.32401,4.03388 -3.50887,10.01854 -6.55665,17.95508 -2.9995,7.91213 -5.16231,13.88409 -6.48632,17.91797 -0.22664,0.69048 0.1149,1.18618 1.02343,1.48438 0.65415,0.2147 1.63368,0.47474 2.94141,0.7832 1.34407,0.32038 2.34391,0.58803 2.99805,0.80273 0.6178,0.20278 1.54509,0.5692 2.78125,1.09571 1.23616,0.5265 2.16345,0.89097 2.78125,1.09375 0.90853,0.2982 1.5595,-0.1523 1.95312,-1.35157 1.53872,-4.68801 3.75467,-11.74986 6.65039,-21.18554 2.93207,-9.42375 5.16832,-16.47995 6.70703,-21.16797 0.19085,-0.58146 0.46778,-0.93402 0.83008,-1.05664 0.27992,0.37367 0.43151,0.70592 0.45703,0.99609 1.57491,16.29738 2.69113,28.53902 3.34571,36.72461 0.548,6.05729 0.95517,10.76018 1.22461,14.10938 0.16063,0.73708 1.94915,1.66587 5.36523,2.78711 2.36218,0.77532 3.74875,0.96901 4.1582,0.58007 3.73001,-4.25058 6.70008,-7.84396 8.91211,-10.78125 12.54679,-14.92308 20.39723,-24.06119 23.55078,-27.41406 0.31292,-0.34011 0.63387,-0.45696 0.96094,-0.34961 0.29073,0.0954 0.32234,0.48725 0.0957,1.17774 -1.51485,4.61533 -3.9315,11.4917 -7.25195,20.62695 -3.32045,9.13525 -5.73905,16.00966 -7.2539,20.625 -0.39363,1.19926 -0.1351,1.94789 0.77343,2.24609 0.65415,0.21471 1.67037,0.48996 3.05078,0.82227 1.38041,0.33231 2.3986,0.60561 3.05274,0.82031 0.65414,0.21471 1.61617,0.59048 2.88867,1.12891 1.30884,0.55036 2.29117,0.93373 2.94531,1.14843 0.90853,0.29821 1.51235,-0.007 1.81055,-0.91601 1.30015,-3.96119 3.09744,-9.99328 5.39453,-18.0957 2.33344,-8.0905 4.15667,-14.13528 5.46875,-18.13282 1.37172,-4.17924 3.55686,-10.4047 6.55469,-18.67968 1.89305,-5.1578 2.87277,-8.06631 4.11914,-11.63282 0.0557,0.82643 2.48716,6.03136 7.74805,16.44336 5.41285,10.71277 8.04906,16.48324 7.90625,17.3125 -0.12984,0.75388 -4.55043,5.23253 -13.25977,13.43555 -8.70284,8.16533 -13.11494,12.60608 -13.23828,13.32227 l -1.40234,8.14257 c -0.10387,0.6031 0.27757,0.9796 1.14453,1.12891 l 9.38476,1.61523 c 0.56541,0.0974 4.50098,-3.82346 11.80664,-11.76367 7.57727,-8.16512 11.74884,-12.43542 12.51172,-12.80859 0.18198,0.0702 2.43947,5.21517 6.77344,15.43164 4.37166,10.22296 6.82447,15.47587 7.35742,15.76172 0.0312,0.0442 0.27229,0.10569 0.72461,0.18359 l 9.11328,1.51172 c 0.82927,0.14282 1.28148,-0.0125 1.35938,-0.46484 l 1.40234,-8.14063 c 0.11685,-0.67849 -2.53963,-6.43524 -7.9707,-17.26758 -5.38689,-10.86354 -8.0277,-16.59611 -7.92383,-17.19922 0.0844,-0.49001 4.43567,-4.80664 13.05664,-12.94726 8.65866,-8.13413 13.07013,-12.67094 13.23242,-13.61328 l 0.2461,-1.42969 c 0.18382,11.53326 0.13239,22.54499 -0.27735,32.76172 -0.1686,4.20398 -0.61265,10.5019 -1.33203,18.89453 -0.68116,8.39416 -1.10442,14.67409 -1.27148,18.83984 -0.0475,1.18476 0.40587,1.79762 1.36132,1.83594 0.64971,0.0261 1.64606,0.008 2.98829,-0.0527 1.34222,-0.061 2.35699,-0.0784 3.04492,-0.0508 0.80257,0.0322 2.00212,0.17617 3.59961,0.43164 1.63724,0.21878 2.85758,0.34476 3.66015,0.37695 0.72614,0.0291 1.10285,-0.28194 1.12891,-0.93164 0.0812,-2.02555 0.0679,-5.06903 -0.0371,-9.13086 -0.0668,-4.0603 -0.0598,-7.10335 0.0215,-9.12891 0.0629,-1.56693 0.70672,-2.32639 1.92969,-2.27734 2.21664,0.0889 5.51885,0.31819 9.90625,0.68555 4.42716,0.33066 7.72978,0.53958 9.90821,0.62695 8.86657,0.35559 15.91377,-2.1377 21.14257,-7.47852 5.0698,-5.19407 7.78434,-12.28049 8.14453,-21.26171 0.33874,-8.44618 -2.0341,-15.58493 -7.12109,-21.41602 -5.19704,-5.95034 -12.01867,-9.09486 -20.46484,-9.43359 -1.79625,-0.072 -4.49513,-0.1045 -8.09375,-0.0957 -3.59862,0.009 -6.29556,-0.0237 -8.0918,-0.0957 -2.10199,-0.0843 -5.23421,-0.22831 -9.39844,-0.43359 -4.12601,-0.20376 -7.22138,-0.34692 -9.28515,-0.42969 -0.16501,-0.007 -0.23259,0.07 -0.3711,0.0859 -0.16348,-0.29115 -0.49005,-0.52711 -1.17187,-0.64454 l -8.9336,-1.53906 c -0.52771,-0.0909 -4.54959,3.99065 -12.06445,12.24414 -7.61622,8.39128 -11.71005,12.67273 -12.2832,12.84571 -0.4004,-0.37945 -0.67338,-0.71736 -0.81641,-1.01368 -5.25328,-12.31538 -9.17145,-21.56696 -11.7539,-27.75585 -0.90759,-1.94165 -1.45411,-2.92848 -1.64258,-2.96094 -1.05543,-0.18177 -2.6326,-0.49273 -4.73047,-0.93164 -2.09787,-0.43892 -3.67504,-0.74988 -4.73047,-0.93164 -1.01773,-0.17528 -1.57123,0.002 -1.66211,0.52929 l -0.0371,0.21485 c -1.23041,-0.41302 -2.8963,-1.02585 -5.20703,-1.93555 -2.42349,-0.95647 -4.25268,-1.63742 -5.48828,-2.04297 -0.65414,-0.2147 -1.48774,0.29677 -2.49805,1.53516 -16.36831,20.31105 -28.95463,35.54296 -37.76172,45.69531 -2.1535,2.51367 -3.41198,3.71108 -3.77539,3.5918 -0.29073,-0.0954 -0.59692,-2.16826 -0.91797,-6.21875 -1.33746,-17.26611 -3.23081,-37.01035 -5.67968,-59.23047 -0.1651,-1.7047 -0.42956,-2.6151 -0.79297,-2.73438 -2.50755,-0.82303 -6.34094,-1.71943 -11.49805,-2.6875 z m 358.61523,1.08789 c -3.54263,0.2554 -7.29812,1.13375 -11.26953,2.63477 -3.04117,1.14943 -7.60512,2.97762 -13.6914,5.48242 -6.06403,2.4555 -10.63595,4.26283 -13.71289,5.42578 -1.53848,0.58148 -2.15389,1.22374 -1.84766,1.92578 l 0.37891,0.83789 c 5.66403,12.49767 10.63112,24.40104 14.90429,35.70704 1.50102,3.97141 3.56355,10.02108 6.18555,18.14843 2.64426,8.07805 4.71773,14.10281 6.21875,18.07422 0.31102,0.82291 0.91218,1.06463 1.80664,0.72656 0.60823,-0.22988 1.51879,-0.63616 2.73047,-1.21679 1.21168,-0.58063 2.12223,-0.98496 2.73047,-1.21485 0.75135,-0.28397 1.87625,-0.60673 3.375,-0.96875 1.52101,-0.41131 2.6399,-0.75298 3.35547,-1.02343 0.71557,-0.27046 0.93046,-0.78186 0.64648,-1.53321 -0.93307,-2.46871 -2.4656,-6.14098 -4.5957,-11.01953 -2.10785,-4.92785 -3.63349,-8.64394 -4.58008,-11.14844 -0.64909,-1.71736 -0.61898,-2.77275 0.0918,-3.16406 0.87615,-0.4947 3.78327,-1.67488 8.7207,-3.54101 2.79072,-1.05478 4.42565,-1.651 4.9043,-1.79102 2.18333,-0.49809 3.78705,-0.20628 4.81054,0.87891 10.14029,10.60139 16.24219,16.90213 18.30664,18.90234 0.76741,0.73219 1.56187,0.94384 2.38477,0.63281 0.75135,-0.28397 1.84123,-0.7562 3.26758,-1.41797 1.46213,-0.67529 2.56896,-1.15547 3.32031,-1.43945 0.67979,-0.25693 1.73595,-0.59557 3.17188,-1.01562 1.43592,-0.42005 2.49403,-0.7587 3.17382,-1.01563 0.57246,-0.21636 0.80545,-0.46768 0.69727,-0.75391 -0.21636,-0.57245 -4.17581,-4.55576 -11.87695,-11.94921 -7.66537,-7.40698 -11.59194,-11.36043 -11.78125,-11.86133 -0.16228,-0.42934 0.008,-1.00451 0.51171,-1.72656 2.98341,-4.43965 4.61865,-8.55378 4.9043,-12.3418 0.28171,-3.58208 -0.57871,-8.02119 -2.58008,-13.31641 -2.90738,-7.69237 -7.79841,-12.62973 -14.67578,-14.81445 -3.11386,-0.99024 -6.44369,-1.35891 -9.98633,-1.10352 z m -0.98632,12.9961 c 1.07788,-0.0624 2.03608,-0.0211 2.87695,0.12109 4.54585,0.77613 8.04262,4.40105 10.49023,10.87695 3.1508,8.33639 -0.21108,14.37125 -10.08593,18.10352 -3.93564,1.4875 -7.63695,2.78486 -11.10352,3.89062 -1.50748,0.4471 -2.59652,0.75589 -3.26758,0.92774 -0.38483,0.0637 -0.64296,0.0798 -0.77734,0.0488 l -3.875,-10.25 c -3.17784,-8.40794 -5.00655,-13.62565 -5.48633,-15.65235 -0.24425,-0.9708 2.53201,-2.5515 8.32813,-4.74218 5.36677,-2.02841 9.66674,-3.13706 12.90039,-3.32422 z m -68.34375,7.02539 c -2.62891,0.0412 -5.31063,0.36756 -8.04493,0.97851 -10.89983,2.43549 -19.11548,8.64154 -24.64648,18.61719 -5.37376,9.62699 -6.82628,19.96452 -4.35742,31.01367 2.49387,11.16114 8.17599,19.92485 17.04492,26.29102 9.19696,6.60641 19.30068,8.67926 30.3125,6.21875 10.97449,-2.45217 19.23214,-8.64761 24.77148,-18.58594 5.30745,-9.57297 6.72134,-19.9018 4.24415,-30.98828 -2.4772,-11.08648 -8.17329,-19.8275 -17.0879,-26.22266 -6.93822,-5.00454 -14.34961,-7.44578 -22.23632,-7.32226 z m -79.25196,13.29492 c -0.68595,0.0588 -1.74917,0.20871 -3.1875,0.44727 -1.43832,0.23855 -2.49959,0.38646 -3.18554,0.44531 -0.72407,0.0621 -1.79697,0.0969 -3.2168,0.10351 -1.41983,0.007 -2.47225,0.0388 -3.1582,0.0977 -0.95272,0.0817 -1.39224,0.54247 -1.32032,1.38086 0.37922,4.42061 1.13783,11.03521 2.27735,19.84375 1.17435,8.76716 1.95086,15.36064 2.33008,19.78125 0.3596,4.19196 0.74778,10.49227 1.16211,18.90234 0.45243,8.40681 0.85656,14.68795 1.21289,18.8418 0.0817,0.95272 0.59806,1.38837 1.55078,1.30664 2.66761,-0.22884 6.64628,-0.62854 11.93359,-1.19726 5.28731,-0.56873 9.26403,-0.96648 11.93164,-1.19532 2.82005,-0.24191 7.06227,-0.45385 12.72852,-0.63281 5.66951,-0.14085 9.91433,-0.33035 12.73437,-0.57227 1.06705,-0.0915 1.68742,-0.70204 1.85938,-1.83007 0.37875,-2.29746 0.33853,-6.114 -0.11914,-11.44922 -0.0621,-0.72407 -0.49269,-1.05108 -1.29297,-0.98242 -0.60974,0.0523 -1.47596,0.24163 -2.59961,0.56835 -1.39041,0.34961 -2.256,0.55747 -2.59571,0.625 -7.10559,1.30055 -17.68982,2.55348 -31.75195,3.75977 -0.68596,0.0588 -1.39145,-4.14142 -2.11719,-12.60156 -0.16999,-1.98166 -0.40838,-4.99432 -0.71679,-9.03711 l -0.77539,-9.03125 c -0.3498,-4.07764 -0.71989,-10.18872 -1.11133,-18.33203 -0.39145,-8.14332 -0.7609,-14.23391 -1.10742,-18.27344 -0.0621,-0.72407 -0.55024,-1.04721 -1.46485,-0.96875 z m 79.34375,0.30664 c 5.18916,-0.0278 10.05666,1.71196 14.60352,5.22266 5.76345,4.39502 9.46287,10.25203 11.09765,17.56836 1.65147,7.39098 0.82827,14.31624 -2.4707,20.77539 -3.47686,6.89081 -8.83645,11.14557 -16.07812,12.76367 -7.12969,1.59308 -13.71598,0.006 -19.75782,-4.75781 -5.69713,-4.44904 -9.35793,-10.3128 -10.98437,-17.5918 -1.63478,-7.31633 -0.82219,-14.19959 2.43945,-20.65039 3.43953,-6.88247 8.72383,-11.11981 15.85352,-12.71289 1.80108,-0.40244 3.56715,-0.60792 5.29687,-0.61719 z m -124.76172,11.49023 c 5.65626,0.22685 10.01775,2.20064 13.08399,5.92188 2.95771,3.56377 4.3217,8.21262 4.0918,13.94531 -0.21612,5.38874 -1.7821,9.61363 -4.69922,12.67383 -3.11435,3.20541 -7.34675,4.70091 -12.69727,4.48633 -9.55449,-0.38318 -15.37385,-0.82734 -17.45898,-1.33203 -0.83313,-0.22481 -1.24427,-0.50956 -1.23047,-0.85352 0.0644,-1.60515 0.10504,-4.01556 0.11914,-7.23047 0.0523,-3.21337 0.10945,-5.6214 0.17383,-7.22656 0.50886,-12.68837 0.90744,-19.25719 1.19336,-19.70508 0.16513,-0.29961 2.83221,-0.49883 8.0039,-0.59765 4.52199,-0.12489 7.6619,-0.15254 9.41992,-0.082 z"
     id="path8427" />
  <g
     transform="matrix(0.69969901,0,0,0.68773066,157.07892,145.44604)"
     id="g4415">
    <g
       id="g4305">
      <g
         id="g4307">
        <path
           style="fill:#5c546a"
           inkscape:connector-curvature="0"
           d="m 336.8,236.65 -16.969,-16.969 c -3.125,-3.125 -8.188,-3.125 -11.312,0 l -32,32 c -3.125,3.125 -3.125,8.188 0,11.313 l 16.969,16.969 c 3.117,3.117 7.219,4.68 11.313,4.68 4.102,0 8.203,-1.563 11.32,-4.68 l 20.672,-20.68 c 3.023,-3.016 4.695,-7.031 4.695,-11.305 -10e-4,-4.282 -1.665,-8.305 -4.688,-11.328 z"
           id="path4309" />
      </g>
      <g
         id="g4311">
        <g
           id="g4313">
          <path
             style="fill:#868491"
             inkscape:connector-curvature="0"
             d="m 304.6,181.05 c -2.742,-0.656 -5.594,0.141 -7.563,2.117 L 240.404,239.8 c -1.969,1.961 -2.773,4.805 -2.125,7.508 0.641,2.703 2.641,4.883 5.281,5.75 l 38.617,15.586 43.312,-43.312 -15.164,-38.906 c -0.842,-2.673 -3.014,-4.704 -5.725,-5.376 z"
             id="path4315" />
        </g>
        <g
           id="g4317">
          <path
             style="fill:#5c546a"
             inkscape:connector-curvature="0"
             d="m 243.56,253.06 38.617,15.586 21.5,-21.5 -35.309,-35.309 -27.965,27.965 c -1.969,1.961 -2.773,4.805 -2.125,7.508 0.641,2.703 2.641,4.882 5.282,5.75 z"
             id="path4319" />
        </g>
      </g>
      <g
         id="g4321">
        <path
           style="fill:#5c546a"
           inkscape:connector-curvature="0"
           d="m 157.08,77.962 -22.586,22.586 c -0.391,0.391 -1.024,0.391 -1.414,0 L 77.807,45.274 c -0.391,-0.391 -0.391,-1.024 0,-1.414 l 22.586,-22.586 c 0.391,-0.391 1.024,-0.391 1.414,0 l 55.272,55.272 c 0.39,0.39 0.39,1.023 0,1.414 z"
           id="path4323" />
      </g>
      <g
         id="g4325">
        <g
           id="g4327">
          <path
             style="fill:#5c546a"
             inkscape:connector-curvature="0"
             d="m 344.16,412.57 -34.75,0 c -4.422,0 -8,-3.578 -8,-8 0,-4.422 3.578,-8 8,-8 l 34.75,0 c 4.211,0 8.336,-1.711 11.313,-4.688 l 18.63,-18.62 c 3.125,-3.125 8.188,-3.125 11.313,0 3.125,3.125 3.125,8.188 0,11.313 L 366.791,403.2 c -5.954,5.961 -14.204,9.375 -22.626,9.375 z"
             id="path4329" />
        </g>
      </g>
      <g
         id="g4331">
        <path
           style="fill:#868491"
           inkscape:connector-curvature="0"
           d="m 184.63,212.57 c -2.133,8.7 -3.221,17.722 -3.221,26.948 0,49.864 32.754,92.221 77.877,106.69 l -13.839,45.972 c -64.86,-20.43 -112.04,-81.14 -112.04,-152.67 0,-14.586 2.012,-29.039 5.89,-42.944 l 45.331,15.996 z"
           id="path4333" />
      </g>
      <g
         id="g4335">
        <path
           style="fill:#5c546a"
           inkscape:connector-curvature="0"
           d="m 433.69,246.91 -22.625,-22.625 c -3.125,-3.125 -8.188,-3.125 -11.312,0 l -111.31,111.32 c -2.453,2.453 -3.047,6.211 -1.469,9.297 l 15.313,29.938 c 1.164,2.281 3.352,3.867 5.883,4.266 0.414,0.063 0.828,0.094 1.242,0.094 2.102,0 4.148,-0.828 5.656,-2.344 l 118.63,-118.63 c 3.125,-3.126 3.125,-8.189 0,-11.314 z"
           id="path4337" />
      </g>
      <g
         id="g4339">
        <path
           style="fill:#868491"
           inkscape:connector-curvature="0"
           d="m 449.69,326.91 -22.625,-22.625 c -3.125,-3.125 -8.188,-3.125 -11.313,0 l -54.625,54.625 c -3.125,3.125 -3.125,8.188 0,11.313 l 22.625,22.625 c 1.563,1.563 3.609,2.344 5.656,2.344 2.047,0 4.094,-0.781 5.656,-2.344 l 54.625,-54.625 c 3.126,-3.125 3.126,-8.188 10e-4,-11.313 z"
           id="path4341" />
      </g>
      <g
         id="g4343">
        <path
           style="fill:#b4b6bc"
           inkscape:connector-curvature="0"
           d="m 277.41,332.57 c -22.055,0 -40,17.945 -40,40 l 0,88 c 0,4.422 3.578,8 8,8 4.422,0 8,-3.578 8,-8 l 48,0 c 0,4.422 3.578,8 8,8 4.422,0 8,-3.578 8,-8 l 0,-88 c 0,-22.054 -17.945,-40 -40,-40 z"
           id="path4345" />
      </g>
      <g
         id="g4347">
        <path
           style="fill:#b4b6bc"
           inkscape:connector-curvature="0"
           d="M 308.34,183.16 190.95,66.22 c -9.352,-9.336 -24.57,-9.355 -33.938,0.004 l -33.945,33.941 c -4.531,4.535 -7.031,10.563 -7.031,16.973 0,6.41 2.5,12.437 7.031,16.969 l 12.688,12.684 c 3.125,3.125 8.187,3.125 11.311,0.001 l 52.128,52.126 c -0.007,0.007 -0.018,0.01 -0.025,0.017 -3.109,3.133 -3.094,8.203 0.047,11.313 l 41.211,40.891 c 1.555,1.547 3.594,2.32 5.633,2.32 2.047,0 4.094,-0.781 5.656,-2.344 l 56.633,-56.633 c 1.5,-1.5 2.344,-3.539 2.344,-5.664 0,-2.125 -0.852,-4.165 -2.352,-5.657 z"
           id="path4349" />
      </g>
      <g
         id="g4351">
        <path
           style="fill:#868491"
           inkscape:connector-curvature="0"
           d="m 199.22,210.25 41.211,40.891 c 1.555,1.547 3.594,2.32 5.633,2.32 2.047,0 4.094,-0.781 5.656,-2.344 l 27.96,-27.97 -139.8,-139.8 -16.81,16.82 c -4.531,4.535 -7.031,10.563 -7.031,16.973 0,6.41 2.5,12.437 7.031,16.969 l 12.688,12.684 c 3.125,3.125 8.187,3.125 11.311,0.001 l 52.128,52.126 c -0.007,0.007 -0.018,0.01 -0.025,0.017 -3.11,3.132 -3.095,8.203 0.046,11.312 z"
           id="path4353" />
      </g>
      <g
         id="g4355">
        <path
           style="fill:#868491"
           inkscape:connector-curvature="0"
           d="m 333.41,452.57 -112,0 c -17.648,0 -32,14.352 -32,32 l 0,16 c 0,4.422 3.578,8 8,8 l 160,0 c 4.422,0 8,-3.578 8,-8 l 0,-16 c 0,-17.648 -14.351,-32 -32,-32 z"
           id="path4357" />
      </g>
      <g
         id="g4359">
        <circle
           style="fill:#5c546a"
           r="48"
           cx="173.41"
           cy="172.57001"
           id="circle4361" />
      </g>
      <g
         id="g4363">
        <circle
           style="fill:#868491"
           r="24"
           cx="173.41"
           cy="172.57001"
           id="circle4365" />
      </g>
      <g
         id="g4367">
        <circle
           style="fill:#5c546a"
           r="16"
           cx="277.10001"
           cy="372.57001"
           id="circle4369" />
      </g>
      <g
         id="g4371">
        <path
           style="fill:#868491"
           inkscape:connector-curvature="0"
           d="M 115.44,24.971 81.502,58.912 c -3.124,3.124 -8.19,3.124 -11.314,0 L 58.874,47.598 c -3.124,-3.124 -3.124,-8.19 0,-11.314 L 92.816,2.343 c 3.124,-3.124 8.19,-3.124 11.314,0 l 11.314,11.314 c 3.123,3.124 3.123,8.189 -0.001,11.314 z"
           id="path4373" />
      </g>
      <g
         id="g4375">
        <path
           style="fill:#5c546a"
           inkscape:connector-curvature="0"
           d="m 75.845,19.314 -16.971,16.97 c -3.124,3.124 -3.124,8.189 0,11.313 l 11.314,11.314 c 3.124,3.124 8.189,3.124 11.313,0 L 98.472,41.94 75.845,19.314 Z"
           id="path4377" />
      </g>
    </g>
  </g>
  <path
     style="display:none;fill:none;stroke:#000000;stroke-width:0.98970997px"
     inkscape:connector-curvature="0"
     display="none"
     d="m 55.037,547.13 c 84.021,50.47 181.95,77.518 279.96,77.327 98.133,-0.19176 196.07,-27.69 279.96,-78.605"
     id="path5073" />
</svg>
