<?xml version="1.0" encoding="UTF-8" standalone="no"?>
<!-- Created with Inkscape (http://www.inkscape.org/) -->

<svg
   xmlns:dc="http://purl.org/dc/elements/1.1/"
   xmlns:cc="http://creativecommons.org/ns#"
   xmlns:rdf="http://www.w3.org/1999/02/22-rdf-syntax-ns#"
   xmlns:svg="http://www.w3.org/2000/svg"
   xmlns="http://www.w3.org/2000/svg"
   xmlns:sodipodi="http://sodipodi.sourceforge.net/DTD/sodipodi-0.dtd"
   xmlns:inkscape="http://www.inkscape.org/namespaces/inkscape"
   id="svg2"
   viewBox="0 0 670 774"
   version="1.1"
   inkscape:version="0.91 r13725"
   sodipodi:docname="pmxecute.svg">
  <defs
     id="defs4756" />
  <sodipodi:namedview
     pagecolor="#ffffff"
     bordercolor="#666666"
     borderopacity="1"
     objecttolerance="10"
     gridtolerance="10"
     guidetolerance="10"
     inkscape:pageopacity="0"
     inkscape:pageshadow="2"
     inkscape:window-width="1680"
     inkscape:window-height="1021"
     id="namedview4754"
     showgrid="true"
     inkscape:showpageshadow="false"
     inkscape:zoom="0.57180228"
     inkscape:cx="-505.97571"
     inkscape:cy="490.49292"
     inkscape:window-x="1680"
     inkscape:window-y="0"
     inkscape:window-maximized="1"
     inkscape:current-layer="svg2">
    <inkscape:grid
       type="xygrid"
       id="grid5318" />
  </sodipodi:namedview>
  <metadata
     id="metadata7">
    <rdf:RDF>
      <cc:Work
         rdf:about="">
        <dc:format>image/svg+xml</dc:format>
        <dc:type
           rdf:resource="http://purl.org/dc/dcmitype/StillImage" />
        <dc:title></dc:title>
      </cc:Work>
    </rdf:RDF>
  </metadata>
  <path
     style="fill:#ea5d5d;fill-opacity:0.98999999;fill-rule:evenodd;stroke:#7e3232;stroke-width:37.9980011;stroke-opacity:0.98823529"
     inkscape:connector-curvature="0"
     d="M 334.91,751.54 19,569.11 l -10e-6,-364.78 315.91,-182.39 315.91,182.39 1e-5,364.78 z"
     id="path2997" />
  <g
     transform="matrix(0.66969499,0,0,0.66969499,163.55808,144.8663)"
     id="g4221">
    <path
       style="fill:#ffd155"
       inkscape:connector-curvature="0"
       d="m 398.18,469.29 -41.734,0 c -9.864,0 -17.86,-7.997 -17.86,-17.86 l 0,-127.66 c 0,-9.864 7.997,-17.86 17.86,-17.86 9.864,0 17.86,7.997 17.86,17.86 l 0,109.8 23.873,0 c 9.864,0 17.86,7.997 17.86,17.86 0,9.863 -7.995,17.86 -17.859,17.86 z"
       id="path4163" />
    <path
       style="fill:#48aee2"
       inkscape:connector-curvature="0"
       d="m 438.24,509.35 c -31.935,0 -57.915,-25.981 -57.915,-57.916 0,-31.935 25.981,-57.916 57.916,-57.916 31.935,0 57.916,25.981 57.916,57.916 -10e-4,31.937 -25.981,57.916 -57.917,57.916 z"
       id="path4165" />
    <path
       style="fill:#ffe49c"
       inkscape:connector-curvature="0"
       d="m 256,429.24 c -9.864,0 -17.86,-7.997 -17.86,-17.86 l 0,-87.604 c 0,-9.864 7.997,-17.86 17.86,-17.86 9.863,0 17.86,7.997 17.86,17.86 l 0,87.604 c 0,9.864 -7.996,17.86 -17.86,17.86 z"
       id="path4167" />
    <path
       style="fill:#ffd155"
       inkscape:connector-curvature="0"
       d="m 256,305.91 -0.004,0 0,123.32 0.004,0 c 9.864,0 17.86,-7.997 17.86,-17.86 l 0,-87.604 c 0,-9.864 -7.996,-17.861 -17.86,-17.861 z"
       id="path4169" />
    <path
       style="fill:#ffe49c"
       inkscape:connector-curvature="0"
       d="m 155.55,469.29 -41.734,0 c -9.864,0 -17.86,-7.997 -17.86,-17.86 0,-9.863 7.997,-17.86 17.86,-17.86 l 23.873,0 0,-109.8 c 0,-9.864 7.997,-17.86 17.86,-17.86 9.863,0 17.86,7.997 17.86,17.86 l 0,127.66 c 0.001,9.864 -7.996,17.86 -17.859,17.86 z"
       id="path4171" />
    <g
       style="fill:#8dc3e9"
       id="g4173">
      <path
         inkscape:connector-curvature="0"
         d="m 404.48,341.64 -296.95,0 C 48.235,341.64 0,293.4 0,234.11 0,180.67 39.793,126.58 115.32,126.58 124.13,56.796 183.86,2.65 256,2.65 c 72.141,0 131.87,54.146 140.68,123.94 75.197,0 115.32,53.889 115.32,107.52 0,59.288 -48.235,107.52 -107.52,107.52 z"
         id="path4175" />
      <path
         inkscape:connector-curvature="0"
         d="m 256,509.35 c -31.935,0 -57.916,-25.981 -57.916,-57.916 0,-31.935 25.981,-57.916 57.916,-57.916 31.935,0 57.916,25.981 57.916,57.916 0,31.937 -25.981,57.916 -57.916,57.916 z"
         id="path4177" />
    </g>
    <path
       style="fill:#48aee2"
       inkscape:connector-curvature="0"
       d="m 256,393.52 -0.004,0 0,115.83 0.004,0 c 31.935,0 57.916,-25.981 57.916,-57.916 0,-31.935 -25.981,-57.915 -57.916,-57.915 z"
       id="path4179" />
    <path
       style="fill:#8dc3e9"
       inkscape:connector-curvature="0"
       d="m 73.763,509.35 c -31.935,0 -57.916,-25.981 -57.916,-57.916 0,-31.935 25.981,-57.916 57.916,-57.916 31.935,0 57.916,25.981 57.916,57.916 -0.001,31.937 -25.982,57.916 -57.916,57.916 z"
       id="path4181" />
    <path
       style="fill:#48aee2"
       inkscape:connector-curvature="0"
       d="M 396.68,126.59 C 387.87,56.796 328.14,2.65 256,2.65 l -0.004,0 0,338.98 148.48,0 c 59.28,0.01 107.52,-48.23 107.52,-107.52 0,-53.64 -40.12,-107.52 -115.32,-107.52 z"
       id="path4183" />
  </g>
  <path
     sodipodi:type="inkscape:offset"
     inkscape:radius="0"
     inkscape:original="M 555.90039 481.64648 C 555.33951 481.6579 554.67254 481.89341 553.90039 482.35352 C 551.69893 483.66532 548.43593 485.70005 544.11133 488.45508 C 539.81958 491.19053 536.57255 493.21359 534.37109 494.52539 C 532.07106 495.89593 528.58268 497.88645 523.9043 500.49609 C 519.6729 502.85641 516.7233 504.54786 514.4375 505.89453 C 514.18369 505.91199 513.94046 505.9117 513.62109 506.04883 C 514.53488 505.65646 512.34161 506.80554 507.04492 509.49609 C 499.29319 513.44892 493.66106 516.18036 490.14648 517.68945 C 486.17501 519.39473 477.8093 522.54822 465.05078 527.15234 L 464.39648 527.37305 C 464.0719 527.51242 463.99626 527.84789 463.93359 528.19531 C 463.36389 528.37538 462.90443 528.50693 462.07812 528.80078 C 460.77731 529.26667 459.79411 529.58812 459.12891 529.76562 C 459.20282 529.7459 458.37026 529.88755 456.63086 530.19336 C 455.16001 530.4671 454.05117 530.76407 453.30469 531.08203 C 452.27242 531.51584 451.8344 532.02785 451.99219 532.61914 C 453.55033 538.45811 455.98595 547.21136 459.29688 558.87695 C 462.59793 570.50559 465.02584 579.23915 466.58398 585.07812 C 468.07309 590.65841 467.50102 594.88888 464.86523 597.76953 C 462.78617 600.06617 458.7721 602.00798 452.82227 603.5957 C 446.28114 605.34122 441.52433 605.542 438.55273 604.19727 C 435.1056 602.70233 432.53409 598.77627 430.83789 592.41992 C 429.33892 586.80268 427.19623 578.32865 424.41016 566.99805 C 421.66104 555.65758 419.53608 547.17779 418.03711 541.56055 C 417.8596 540.89535 417.34607 540.67748 416.49609 540.9043 C 415.42438 541.19028 413.38802 541.71277 410.38477 542.47461 C 407.78802 543.12797 405.73197 543.65817 404.2168 544.0625 C 403.25595 544.3189 402.87884 544.83526 403.08594 545.61133 C 403.12538 545.75915 403.22166 546.04882 403.37695 546.48242 C 404.00858 548.41471 404.20705 549.23693 404.71875 550.86133 C 398.08572 545.84778 389.96265 543.67082 380.15039 544.70898 C 368.77751 545.91227 360.07609 551.10278 354.04688 560.2793 C 348.37167 568.80296 346.1494 578.8843 347.38086 590.52344 C 348.61232 602.16257 352.83384 611.52409 360.04492 618.60742 C 367.77281 626.21301 377.34299 629.41239 388.75391 628.20508 C 399.70839 627.04606 408.43772 621.77551 414.94531 612.39453 C 415.57947 611.48127 415.87251 610.79628 415.82422 610.33984 C 415.79202 610.03555 414.47706 608.50169 411.87695 605.73828 C 409.27282 602.93683 407.85712 601.54812 407.62891 601.57227 C 407.43872 601.59239 406.45257 602.63984 404.67188 604.71289 C 402.55106 607.20655 400.41317 609.182 398.25977 610.64062 C 394.99565 612.87063 391.501 614.18374 387.77344 614.57812 C 380.28027 615.37092 374.13005 613.04085 369.32227 607.58789 C 365.07737 602.72923 362.54179 596.40098 361.7168 588.60352 C 360.8918 580.80605 362.07158 574.14258 365.25586 568.61328 C 368.83218 562.42711 374.38481 558.9355 381.91602 558.13867 C 385.8718 557.72014 389.58441 558.26942 393.05273 559.78711 C 395.15136 560.71893 397.44408 562.20721 399.92969 564.25195 C 401.95263 565.92257 403.2106 566.732 403.70508 566.67969 C 404.12348 566.63542 405.17356 564.92695 406.85547 561.55664 C 407.30372 560.64608 407.17638 560.64509 407.5 559.93164 C 410.9957 571.54793 413.32656 579.53573 414.49023 583.89648 C 414.93401 585.55948 415.52546 587.85581 416.26758 590.78516 C 416.99983 593.67755 417.53003 595.73359 417.85547 596.95312 C 420.51811 606.93112 423.84413 613.1684 427.83594 615.66602 C 433.00804 618.87794 442.06166 618.75822 454.99609 615.30664 C 462.12851 613.40334 467.52085 611.42985 471.17188 609.38672 C 477.13127 606.05461 480.60708 601.80114 481.60156 596.62695 C 482.24403 593.24895 481.53569 587.69831 479.47461 579.97461 C 479.10973 578.60725 478.5383 576.54305 477.76172 573.78125 C 476.97528 570.98249 476.39623 568.88087 476.02148 567.47656 C 474.87753 563.18972 473.33216 556.7329 471.38672 548.10742 C 470.50408 544.11726 469.99214 542.22584 469.27344 539.16406 C 473.48364 537.29602 478.93292 534.71649 486.87109 530.70898 C 491.95097 541.47333 495.83335 549.98428 498.51953 556.24023 C 500.25499 560.282 502.67494 566.40227 505.7793 574.60156 C 508.90371 582.75062 511.32651 588.82736 513.04688 592.83398 C 513.42415 593.71263 514.05104 593.96321 514.92969 593.58594 C 515.56231 593.3143 516.5066 592.8474 517.76172 592.18359 C 519.01684 591.51979 519.96113 591.05289 520.59375 590.78125 C 521.26152 590.49452 522.26761 590.1248 523.61328 589.67188 C 524.95895 589.21895 525.94941 588.85562 526.58203 588.58398 C 527.60126 588.14635 527.95167 587.55837 527.63477 586.82031 C 525.89931 582.77855 523.13879 576.78365 519.35156 568.83594 C 515.59949 560.87313 512.8546 554.87184 511.11914 550.83008 C 508.34241 544.36325 504.81181 535.70099 500.52539 524.8457 C 511.87216 520.46061 517.76449 518.16197 518.98438 517.65039 C 519.49604 518.44022 520.4503 519.84072 520.85352 520.48047 C 527.33691 530.46423 531.69376 537.32845 533.92578 541.07422 C 536.11864 544.75427 539.20349 550.41892 543.18164 558.06641 C 547.17307 565.66146 550.26613 571.29846 552.45898 574.97852 C 553.02678 575.93139 553.8532 576.08361 554.9375 575.4375 C 557.3361 574.00823 560.91036 571.78885 565.66211 568.7793 C 570.41386 565.76974 573.99007 563.55037 576.38867 562.12109 C 584.86593 557.06969 591.3014 553.6371 595.69531 551.82031 C 596.69364 551.40353 597.35697 551.09618 597.68555 550.90039 C 598.37556 550.48923 598.62564 549.93933 598.4375 549.25 C 597.44798 546.76746 596.6512 544.90567 596.04492 543.66406 C 595.954 543.36204 595.68266 542.49902 595.23438 541.07422 C 594.90986 539.93186 594.59256 539.09799 594.2793 538.57227 C 593.75066 537.68511 593.17659 537.46848 592.55859 537.92578 L 591.84961 538.41602 C 581.7065 545.52865 575.48363 549.77009 573.18359 551.14062 L 567.79102 554.42188 C 564.50526 556.37978 562.24627 557.25717 561.01367 557.05664 C 559.45317 556.82887 557.65537 555.00703 555.61914 551.58984 L 551.27344 544.29492 C 549.62879 541.53488 548.85869 540.27971 548.96289 540.5293 C 548.39645 539.13038 548.74053 537.99111 549.99609 537.10938 C 551.36351 536.11646 554.75818 534.00399 560.17969 530.77344 C 566.61978 526.93593 570.81789 524.56725 572.77539 523.66797 C 575.44248 522.39038 576.9729 521.63339 577.36719 521.39844 C 578.35292 520.81106 578.67078 520.2223 578.31836 519.63086 C 577.67225 518.54656 576.81808 516.85253 575.75586 514.54688 C 574.7265 512.22164 573.89802 510.53191 573.27148 509.48047 C 572.8799 508.82332 572.35788 508.73406 571.70703 509.21094 C 569.13648 511.09886 566.86945 512.67355 564.9043 513.93359 C 559.91557 517.21794 554.19986 520.77773 547.75977 524.61523 L 546.08594 525.61328 C 545.38265 526.07688 544.83374 526.42716 544.43945 526.66211 C 543.02658 527.50401 541.86751 527.50448 540.96484 526.66211 C 540.67048 526.39227 539.92675 525.25431 538.73242 523.25 L 534.35547 515.90625 C 532.65209 513.04764 531.93018 511.052 532.18945 509.91797 C 532.48158 508.76436 533.9756 507.38478 536.66992 505.7793 C 539.52853 504.07592 543.88122 501.70309 549.72852 498.66406 C 555.58909 495.5726 559.91609 493.19547 562.70898 491.53125 C 563.43185 491.10051 563.56751 490.50768 563.11719 489.75195 C 562.49066 488.70051 560.54008 486.2112 557.26562 482.28516 C 556.91601 481.84788 556.46127 481.63507 555.90039 481.64648 z M 112.07422 482.36719 C 111.75384 482.42568 111.49777 482.64328 111.30469 483.01758 L 110.92578 483.79102 C 104.86478 496.10107 98.860978 507.42914 92.914062 517.77539 C 90.817394 521.42311 87.50737 526.79947 82.982422 533.9043 C 78.490634 541.02818 75.204561 546.39716 73.126953 550.01172 C 72.536074 551.03971 72.655349 551.79302 73.484375 552.26953 C 74.048113 552.59356 74.938431 553.03978 76.15625 553.60742 C 77.374069 554.17506 78.282007 554.62956 78.878906 554.97266 C 79.575288 555.37293 80.57168 556.05709 81.869141 557.02344 C 83.218823 557.97569 84.243071 558.65051 84.939453 559.05078 C 85.569513 559.41293 86.04511 559.31178 86.369141 558.74805 C 87.379354 556.99051 88.78006 554.28912 90.568359 550.64062 C 92.38982 547.01119 93.80424 544.31613 94.814453 542.55859 C 95.595939 541.19899 96.518924 540.82561 97.580078 541.43555 C 99.503419 542.54106 102.3228 544.27308 106.04102 546.63086 C 109.81146 548.97454 112.64302 550.68893 114.5332 551.77539 C 122.22657 556.19746 129.62649 557.25282 136.73438 554.94141 C 143.63338 552.6864 149.32349 547.66199 153.80273 539.86914 C 154.42155 538.79254 154.83727 537.70972 155.32617 536.62891 C 153.47701 542.53943 151.69149 548.19914 150.51953 551.45703 C 149.08242 555.45201 146.72912 561.37316 143.45898 569.2207 C 140.23779 577.0452 137.90977 582.95424 136.47266 586.94922 C 136.22666 587.63304 136.55335 588.13726 137.45312 588.46094 C 138.10096 588.69398 139.07257 588.98295 140.37109 589.32812 C 141.7056 589.68624 142.69787 589.9818 143.3457 590.21484 C 143.95755 590.43494 144.87291 590.8256 146.09375 591.38672 C 147.31459 591.94784 148.23191 592.33849 148.84375 592.55859 C 149.74352 592.88227 150.40673 592.45137 150.83398 591.26367 C 152.50415 586.62086 154.91971 579.6238 158.08008 570.27344 C 161.27644 560.93602 163.70874 553.94555 165.37891 549.30273 C 165.58606 548.72688 165.87267 548.38385 166.23828 548.27148 C 166.50756 548.65289 166.65063 548.98852 166.66797 549.2793 C 167.78317 565.61458 168.55283 577.8832 168.97656 586.08398 C 169.35372 592.1543 169.62971 596.8672 169.80469 600.22266 C 169.9445 600.96397 171.70671 601.94314 175.08984 603.16016 C 177.42925 604.00171 178.80827 604.23272 179.22852 603.85547 C 183.07677 599.71164 186.14751 596.20388 188.44141 593.33008 C 201.40359 578.76635 209.50911 569.85255 212.75586 566.58984 C 213.07823 566.25868 213.40069 566.15106 213.72461 566.26758 C 214.01254 566.37115 214.03506 566.76539 213.78906 567.44922 C 212.14479 572.02005 209.53349 578.82324 205.95703 587.86133 C 202.38057 596.89942 199.76927 603.70456 198.125 608.27539 C 197.69775 609.46309 197.93421 610.21929 198.83398 610.54297 C 199.48182 610.77601 200.49083 611.07815 201.86133 611.44922 C 203.23183 611.82029 204.24279 612.12242 204.89062 612.35547 C 205.53846 612.58851 206.48927 612.99234 207.74609 613.56641 C 209.03891 614.15342 210.01037 614.56188 210.6582 614.79492 C 211.55797 615.1186 212.16851 614.83141 212.49219 613.93164 C 213.90341 610.00864 215.87206 604.03059 218.39648 595.99609 C 220.9569 587.97454 222.94888 581.98243 224.37305 578.02344 C 225.86195 573.88449 228.22143 567.72241 231.45117 559.53516 C 233.23953 555.05685 234.09569 552.69865 235.35156 549.43164 C 235.92025 551.14327 237.51934 554.7807 242.11523 564.02344 C 247.45925 574.77071 250.05634 580.55839 249.9082 581.38672 C 249.77354 582.13975 245.32623 586.5913 236.56445 594.73828 C 227.80941 602.84761 223.36817 607.25923 223.24023 607.97461 L 221.78516 616.10742 C 221.67742 616.70984 222.05589 617.08927 222.92188 617.24414 L 232.29883 618.91992 C 232.8636 619.02092 236.82324 615.1256 244.17969 607.23242 C 251.80918 599.11608 256.00623 594.87217 256.77148 594.50391 C 256.95301 594.57522 259.17892 599.73445 263.44727 609.97852 C 267.75326 620.22931 270.17202 625.49785 270.70312 625.78711 C 270.73404 625.83149 270.97396 625.89381 271.42578 625.97461 L 280.5293 627.54492 C 281.35763 627.69305 281.81178 627.54166 281.89258 627.08984 L 283.34766 618.95703 C 283.46886 618.27931 280.8478 612.50758 275.48633 601.64062 C 270.16924 590.74275 267.5661 584.99109 267.67383 584.38867 C 267.76136 583.8992 272.14144 579.61249 280.81445 571.52734 C 289.11924 563.82534 293.27058 559.59339 293.81055 558.37891 C 293.81936 560.07526 293.87095 562.6207 293.85547 563.83789 C 293.86563 575.74208 293.7894 583.87322 293.625 588.23047 C 293.46348 592.51128 292.97174 598.94235 292.15039 607.52344 C 291.3687 616.06775 290.89589 622.48091 290.73438 626.76172 C 290.69255 627.87014 291.30314 628.44655 292.56445 628.49414 C 295.35462 628.59941 299.56122 628.68308 305.18555 628.74219 C 310.80988 628.80129 315.01842 628.88301 317.80859 628.98828 C 327.66974 629.36034 334.93799 629.97838 339.61328 630.84375 C 340.67771 631.03701 341.40099 631.14183 341.7832 631.15625 C 342.58585 631.18653 343.09543 630.86046 343.3125 630.17969 C 343.83244 627.55827 344.17522 625.56305 344.3418 624.19141 C 344.42978 623.88852 344.67347 623.01561 345.07227 621.57617 C 345.4213 620.44106 345.60779 619.56858 345.63086 618.95703 C 345.6698 617.92505 345.30442 617.43287 344.53711 617.48047 L 343.67578 617.50586 C 331.29563 617.95738 323.7673 618.1322 321.0918 618.03125 L 314.7832 617.85156 C 310.96105 617.70735 308.58736 617.21566 307.66211 616.37695 C 306.47652 615.33705 305.9594 612.82855 306.10938 608.85352 L 306.42969 600.36914 C 306.55082 597.15853 306.58738 595.68506 306.53906 595.95117 C 306.82463 594.46919 307.73244 593.69956 309.26562 593.64258 C 310.95314 593.55314 314.95126 593.62924 321.25781 593.86719 C 328.74923 594.14984 333.55965 594.44577 335.69141 594.75586 C 338.62437 595.13445 340.32064 595.3323 340.7793 595.34961 C 341.92594 595.39287 342.5131 595.0708 342.53906 594.38281 C 342.58665 593.1215 342.79157 591.23323 343.1543 588.7207 C 343.55525 586.20962 343.77807 584.34418 343.82422 583.12109 C 343.85306 582.35666 343.46569 581.99681 342.66016 582.04297 C 339.47623 582.22905 336.71721 582.31621 334.38281 582.30469 C 328.41016 582.34727 321.67696 582.22796 314.18555 581.94531 L 312.23633 581.87109 C 311.39401 581.87759 310.74381 581.87277 310.28516 581.85547 C 308.64163 581.79346 307.67038 581.16269 307.37109 579.96484 C 307.27085 579.5783 307.26555 578.22018 307.35352 575.88867 L 307.67578 567.3457 C 307.80124 564.02043 308.28086 561.95121 309.11523 561.14062 C 309.98783 560.33148 311.99084 559.98722 315.125 560.10547 C 318.45027 560.23093 323.39345 560.60802 329.95312 561.23828 C 336.55247 561.83176 341.47578 562.18992 344.72461 562.3125 C 345.56548 562.34423 346.00199 561.92011 346.03516 561.04102 C 346.0813 559.81793 345.79784 556.66927 345.18555 551.59375 C 345.07448 550.47956 344.12258 549.88809 342.32617 549.82031 C 339.76533 549.72369 335.92042 549.65559 330.79297 549.61523 C 325.70374 549.57632 321.8792 549.50873 319.31836 549.41211 C 316.64285 549.31116 312.63235 549.0833 307.28711 548.72852 C 301.94187 548.37374 297.93136 548.14587 295.25586 548.04492 C 294.87096 548.0304 294.63126 548.14638 294.39062 548.25977 C 294.37723 548.25727 294.37493 548.25048 294.36133 548.24805 L 285.4375 546.65234 C 284.91038 546.55808 280.86258 550.61325 273.29492 558.81836 C 265.62503 567.16061 261.50394 571.41664 260.92969 571.58594 C 260.53174 571.20393 260.26222 570.86363 260.12109 570.56641 C 254.94692 558.21758 251.08762 548.93971 248.54492 542.73438 C 247.64981 540.78695 247.10818 539.79734 246.91992 539.76367 C 245.86568 539.57514 244.29032 539.2551 242.19531 538.80273 C 240.1003 538.35037 238.52689 538.02838 237.47266 537.83984 C 236.45607 537.65804 235.90091 537.83226 235.80664 538.35938 L 235.79102 538.45117 C 234.72221 538.02962 233.81294 537.68625 232.23633 537.01367 C 229.84074 535.98931 228.03033 535.2566 226.80664 534.81641 C 226.15881 534.58336 225.31237 535.07181 224.26758 536.28125 C 207.33361 556.12316 194.322 570.9943 185.23242 580.89453 C 183.00897 583.34655 181.71733 584.50838 181.35742 584.37891 C 181.0695 584.27533 180.82205 582.19464 180.61523 578.13672 C 179.76468 560.83978 178.4294 541.04981 176.60742 518.76953 C 176.49041 517.06086 176.25053 516.14314 175.89062 516.01367 C 173.40726 515.12033 169.60241 514.11686 164.47461 513.00391 C 163.60798 512.8141 163.05263 513.06032 162.80664 513.74414 C 161.60231 517.092 159.76006 522.84761 157.80859 529.01172 C 158.44997 525.22965 158.32894 521.42265 157.4082 517.58984 C 155.55843 509.90908 150.97117 503.9624 143.64258 499.75 C 142.08401 498.85415 139.70705 497.57702 136.51367 495.91797 C 133.32029 494.25891 130.94529 492.98179 129.38672 492.08594 C 127.56286 491.0376 124.85135 489.45843 121.25586 487.34766 C 117.69353 485.25595 115.01726 483.69529 113.22656 482.66602 C 112.77889 482.4087 112.3946 482.3087 112.07422 482.36719 z M 119.06055 500.37891 C 119.34568 500.18986 121.80241 501.24874 126.43164 503.55664 C 130.49713 505.54051 133.29295 506.97087 134.81836 507.84766 C 139.7262 510.66863 142.67609 514.43802 143.66992 519.15625 C 144.64051 523.68466 143.69698 528.436 140.83789 533.41016 C 138.15034 538.08586 134.80552 541.1039 130.80273 542.46484 C 126.5579 543.86313 122.11325 543.22903 117.4707 540.56055 C 109.18044 535.79539 104.22943 532.70607 102.61523 531.29297 C 101.98099 530.70783 101.74838 530.26525 101.91992 529.9668 C 102.72047 528.57403 103.87144 526.45599 105.37305 523.61328 C 106.90782 520.78963 108.07641 518.68183 108.87695 517.28906 C 115.20508 506.27959 118.59969 500.64341 119.06055 500.37891 z "
     style="font-size:117.5px;line-height:125%;font-family:'Berlin Sans FB';text-align:center;letter-spacing:0px;word-spacing:0px;text-anchor:middle;fill:#000000"
     id="path4787"
     d="m 555.90039,481.64648 c -0.56088,0.0114 -1.22785,0.24693 -2,0.70704 -2.20146,1.3118 -5.46446,3.34653 -9.78906,6.10156 -4.29175,2.73545 -7.53878,4.75851 -9.74024,6.07031 -2.30003,1.37054 -5.78841,3.36106 -10.46679,5.9707 -4.2314,2.36032 -7.181,4.05177 -9.4668,5.39844 -0.25381,0.0175 -0.49704,0.0172 -0.81641,0.1543 0.91379,-0.39237 -1.27948,0.75671 -6.57617,3.44726 -7.75173,3.95283 -13.38386,6.68427 -16.89844,8.19336 -3.97147,1.70528 -12.33718,4.85877 -25.0957,9.46289 l -0.6543,0.22071 c -0.32458,0.13937 -0.40022,0.47484 -0.46289,0.82226 -0.5697,0.18007 -1.02916,0.31162 -1.85547,0.60547 -1.30081,0.46589 -2.28401,0.78734 -2.94921,0.96484 0.0739,-0.0197 -0.75865,0.12193 -2.49805,0.42774 -1.47085,0.27374 -2.57969,0.57071 -3.32617,0.88867 -1.03227,0.43381 -1.47029,0.94582 -1.3125,1.53711 1.55814,5.83897 3.99376,14.59222 7.30469,26.25781 3.30105,11.62864 5.72896,20.3622 7.2871,26.20117 1.48911,5.58029 0.91704,9.81076 -1.71875,12.69141 -2.07906,2.29664 -6.09313,4.23845 -12.04296,5.82617 -6.54113,1.74552 -11.29794,1.9463 -14.26954,0.60157 -3.44713,-1.49494 -6.01864,-5.421 -7.71484,-11.77735 -1.49897,-5.61724 -3.64166,-14.09127 -6.42773,-25.42187 -2.74912,-11.34047 -4.87408,-19.82026 -6.37305,-25.4375 -0.17751,-0.6652 -0.69104,-0.88307 -1.54102,-0.65625 -1.07171,0.28598 -3.10807,0.80847 -6.11132,1.57031 -2.59675,0.65336 -4.6528,1.18356 -6.16797,1.58789 -0.96085,0.2564 -1.33796,0.77276 -1.13086,1.54883 0.0394,0.14782 0.13572,0.43749 0.29101,0.87109 0.63163,1.93229 0.8301,2.75451 1.3418,4.37891 -6.63303,-5.01355 -14.7561,-7.19051 -24.56836,-6.15235 -11.37288,1.20329 -20.0743,6.3938 -26.10351,15.57032 -5.67521,8.52366 -7.89748,18.605 -6.66602,30.24414 1.23146,11.63913 5.45298,21.00065 12.66406,28.08398 7.72789,7.60559 17.29807,10.80497 28.70899,9.59766 10.95448,-1.15902 19.68381,-6.42957 26.1914,-15.81055 0.63416,-0.91326 0.9272,-1.59825 0.87891,-2.05469 -0.0322,-0.30429 -1.34716,-1.83815 -3.94727,-4.60156 -2.60413,-2.80145 -4.01983,-4.19016 -4.24804,-4.16601 -0.19019,0.0201 -1.17634,1.06757 -2.95703,3.14062 -2.12082,2.49366 -4.25871,4.46911 -6.41211,5.92773 -3.26412,2.23001 -6.75877,3.54312 -10.48633,3.9375 -7.49317,0.7928 -13.64339,-1.53727 -18.45117,-6.99023 -4.2449,-4.85866 -6.78048,-11.18691 -7.60547,-18.98437 -0.825,-7.79747 0.35478,-14.46094 3.53906,-19.99024 3.57632,-6.18617 9.12895,-9.67778 16.66016,-10.47461 3.95578,-0.41853 7.66839,0.13075 11.13671,1.64844 2.09863,0.93182 4.39135,2.4201 6.87696,4.46484 2.02294,1.67062 3.28091,2.48005 3.77539,2.42774 0.4184,-0.0443 1.46848,-1.75274 3.15039,-5.12305 0.44825,-0.91056 0.32091,-0.91155 0.64453,-1.625 3.4957,11.61629 5.82656,19.60409 6.99023,23.96484 0.44378,1.663 1.03523,3.95933 1.77735,6.88868 0.73225,2.89239 1.26245,4.94843 1.58789,6.16796 2.66264,9.978 5.98866,16.21528 9.98047,18.7129 5.1721,3.21192 14.22572,3.0922 27.16015,-0.35938 7.13242,-1.9033 12.52476,-3.87679 16.17579,-5.91992 5.95939,-3.33211 9.4352,-7.58558 10.42968,-12.75977 0.64247,-3.378 -0.0659,-8.92864 -2.12695,-16.65234 -0.36488,-1.36736 -0.93631,-3.43156 -1.71289,-6.19336 -0.78644,-2.79876 -1.36549,-4.90038 -1.74024,-6.30469 -1.14395,-4.28684 -2.68932,-10.74366 -4.63476,-19.36914 -0.88264,-3.99016 -1.39458,-5.88158 -2.11328,-8.94336 4.2102,-1.86804 9.65948,-4.44757 17.59765,-8.45508 5.07988,10.76435 8.96226,19.2753 11.64844,25.53125 1.73546,4.04177 4.15541,10.16204 7.25977,18.36133 3.12441,8.14906 5.54721,14.2258 7.26758,18.23242 0.37727,0.87865 1.00416,1.12923 1.88281,0.75196 0.63262,-0.27164 1.57691,-0.73854 2.83203,-1.40235 1.25512,-0.6638 2.19941,-1.1307 2.83203,-1.40234 0.66777,-0.28673 1.67386,-0.65645 3.01953,-1.10937 1.34567,-0.45293 2.33613,-0.81626 2.96875,-1.0879 1.01923,-0.43763 1.36964,-1.02561 1.05274,-1.76367 -1.73546,-4.04176 -4.49598,-10.03666 -8.28321,-17.98437 -3.75207,-7.96281 -6.49696,-13.9641 -8.23242,-18.00586 -2.77673,-6.46683 -6.30733,-15.12909 -10.59375,-25.98438 11.34677,-4.38509 17.2391,-6.68373 18.45899,-7.19531 0.51166,0.78983 1.46592,2.19033 1.86914,2.83008 6.48339,9.98376 10.84024,16.84798 13.07226,20.59375 2.19286,3.68005 5.27771,9.3447 9.25586,16.99219 3.99143,7.59505 7.08449,13.23205 9.27734,16.91211 0.5678,0.95287 1.39422,1.10509 2.47852,0.45898 2.3986,-1.42927 5.97286,-3.64865 10.72461,-6.6582 4.75175,-3.00956 8.32796,-5.22893 10.72656,-6.65821 8.47726,-5.0514 14.91273,-8.48399 19.30664,-10.30078 0.99833,-0.41678 1.66166,-0.72413 1.99024,-0.91992 0.69001,-0.41116 0.94009,-0.96106 0.75195,-1.65039 -0.98952,-2.48254 -1.7863,-4.34433 -2.39258,-5.58594 -0.0909,-0.30202 -0.36226,-1.16504 -0.81054,-2.58984 -0.32452,-1.14236 -0.64182,-1.97623 -0.95508,-2.50195 -0.52864,-0.88716 -1.10271,-1.10379 -1.72071,-0.64649 l -0.70898,0.49024 c -10.14311,7.11263 -16.36598,11.35407 -18.66602,12.7246 l -5.39257,3.28126 c -3.28576,1.9579 -5.54475,2.83529 -6.77735,2.63476 -1.5605,-0.22777 -3.3583,-2.04961 -5.39453,-5.4668 l -4.3457,-7.29492 c -1.64465,-2.76004 -2.41475,-4.01521 -2.31055,-3.76562 -0.56644,-1.39892 -0.22236,-2.53819 1.0332,-3.41992 1.36742,-0.99292 4.76209,-3.10539 10.1836,-6.33594 6.44009,-3.83751 10.6382,-6.20619 12.5957,-7.10547 2.66709,-1.27759 4.19751,-2.03458 4.5918,-2.26953 0.98573,-0.58738 1.30359,-1.17614 0.95117,-1.76758 -0.64611,-1.0843 -1.50028,-2.77833 -2.5625,-5.08398 -1.02936,-2.32524 -1.85784,-4.01497 -2.48438,-5.06641 -0.39158,-0.65715 -0.9136,-0.74641 -1.56445,-0.26953 -2.57055,1.88792 -4.83758,3.46261 -6.80273,4.72265 -4.98873,3.28435 -10.70444,6.84414 -17.14453,10.68164 l -1.67383,0.99805 c -0.70329,0.4636 -1.2522,0.81388 -1.64649,1.04883 -1.41287,0.8419 -2.57194,0.84237 -3.47461,0 -0.29436,-0.26984 -1.03809,-1.4078 -2.23242,-3.41211 l -4.37695,-7.34375 c -1.70338,-2.85861 -2.42529,-4.85425 -2.16602,-5.98828 0.29213,-1.15361 1.78615,-2.53319 4.48047,-4.13867 2.85861,-1.70338 7.2113,-4.07621 13.0586,-7.11524 5.86057,-3.09146 10.18757,-5.46859 12.98046,-7.13281 0.72287,-0.43074 0.85853,-1.02357 0.40821,-1.7793 -0.62653,-1.05144 -2.57711,-3.54075 -5.85157,-7.46679 -0.34961,-0.43728 -0.80435,-0.65009 -1.36523,-0.63868 z m -443.82617,0.72071 c -0.32038,0.0585 -0.57645,0.27609 -0.76953,0.65039 l -0.37891,0.77344 c -6.061,12.31005 -12.064802,23.63812 -18.011718,33.98437 -2.096668,3.64772 -5.406692,9.02408 -9.93164,16.12891 -4.491788,7.12388 -7.777861,12.49286 -9.855469,16.10742 -0.590879,1.02799 -0.471604,1.7813 0.357422,2.25781 0.563738,0.32403 1.454056,0.77025 2.671875,1.33789 1.217819,0.56764 2.125757,1.02214 2.722656,1.36524 0.696382,0.40027 1.692774,1.08443 2.990235,2.05078 1.349682,0.95225 2.37393,1.62707 3.070312,2.02734 0.63006,0.36215 1.105657,0.261 1.429688,-0.30273 1.010213,-1.75754 2.410919,-4.45893 4.199218,-8.10743 1.821461,-3.62943 3.235881,-6.32449 4.246094,-8.08203 0.781486,-1.3596 1.704471,-1.73298 2.765625,-1.12304 1.923341,1.10551 4.742722,2.83753 8.460942,5.19531 3.77044,2.34368 6.602,4.05807 8.49218,5.14453 7.69337,4.42207 15.09329,5.47743 22.20118,3.16602 6.899,-2.25501 12.58911,-7.27942 17.06835,-15.07227 0.61882,-1.0766 1.03454,-2.15942 1.52344,-3.24023 -1.84916,5.91052 -3.63468,11.57023 -4.80664,14.82812 -1.43711,3.99498 -3.79041,9.91613 -7.06055,17.76367 -3.22119,7.8245 -5.54921,13.73354 -6.98632,17.72852 -0.246,0.68382 0.0807,1.18804 0.98046,1.51172 0.64784,0.23304 1.61945,0.52201 2.91797,0.86718 1.33451,0.35812 2.32678,0.65368 2.97461,0.88672 0.61185,0.2201 1.52721,0.61076 2.74805,1.17188 1.22084,0.56112 2.13816,0.95177 2.75,1.17187 0.89977,0.32368 1.56298,-0.10722 1.99023,-1.29492 1.67017,-4.64281 4.08573,-11.63987 7.2461,-20.99023 3.19636,-9.33742 5.62866,-16.32789 7.29883,-20.97071 0.20715,-0.57585 0.49376,-0.91888 0.85937,-1.03125 0.26928,0.38141 0.41235,0.71704 0.42969,1.00782 1.1152,16.33528 1.88486,28.6039 2.30859,36.80468 0.37716,6.07032 0.65315,10.78322 0.82813,14.13868 0.13981,0.74131 1.90202,1.72048 5.28515,2.9375 2.33941,0.84155 3.71843,1.07256 4.13868,0.69531 3.84825,-4.14383 6.91899,-7.65159 9.21289,-10.52539 12.96218,-14.56373 21.0677,-23.47753 24.31445,-26.74024 0.32237,-0.33116 0.64483,-0.43878 0.96875,-0.32226 0.28793,0.10357 0.31045,0.49781 0.0644,1.18164 -1.64427,4.57083 -4.25557,11.37402 -7.83203,20.41211 -3.57646,9.03809 -6.18776,15.84323 -7.83203,20.41406 -0.42725,1.1877 -0.19079,1.9439 0.70898,2.26758 0.64784,0.23304 1.65685,0.53518 3.02735,0.90625 1.3705,0.37107 2.38146,0.6732 3.02929,0.90625 0.64784,0.23304 1.59865,0.63687 2.85547,1.21094 1.29282,0.58701 2.26428,0.99547 2.91211,1.22851 0.89977,0.32368 1.51031,0.0365 1.83399,-0.86328 1.41122,-3.923 3.37987,-9.90105 5.90429,-17.93555 2.56042,-8.02155 4.5524,-14.01366 5.97657,-17.97265 1.4889,-4.13895 3.84838,-10.30103 7.07812,-18.48828 1.78836,-4.47831 2.64452,-6.83651 3.90039,-10.10352 0.56869,1.71163 2.16778,5.34906 6.76367,14.5918 5.34402,10.74727 7.94111,16.53495 7.79297,17.36328 -0.13466,0.75303 -4.58197,5.20458 -13.34375,13.35156 -8.75504,8.10933 -13.19628,12.52095 -13.32422,13.23633 l -1.45507,8.13281 c -0.10774,0.60242 0.27073,0.98185 1.13672,1.13672 l 9.37695,1.67578 c 0.56477,0.101 4.52441,-3.79432 11.88086,-11.6875 7.62949,-8.11634 11.82654,-12.36025 12.59179,-12.72851 0.18153,0.0713 2.40744,5.23054 6.67579,15.47461 4.30599,10.25079 6.72475,15.51933 7.25585,15.80859 0.0309,0.0444 0.27084,0.1067 0.72266,0.1875 l 9.10352,1.57031 c 0.82833,0.14813 1.28248,-0.003 1.36328,-0.45508 l 1.45508,-8.13281 c 0.1212,-0.67772 -2.49986,-6.44945 -7.86133,-17.31641 -5.31709,-10.89787 -7.92023,-16.64953 -7.8125,-17.25195 0.0875,-0.48947 4.46761,-4.77618 13.14062,-12.86133 8.30479,-7.702 12.45613,-11.93395 12.9961,-13.14843 0.009,1.69635 0.0604,4.24179 0.0449,5.45898 0.0102,11.90419 -0.0661,20.03533 -0.23047,24.39258 -0.16152,4.28081 -0.65326,10.71188 -1.47461,19.29297 -0.78169,8.54431 -1.2545,14.95747 -1.41601,19.23828 -0.0418,1.10842 0.56876,1.68483 1.83007,1.73242 2.79017,0.10527 6.99677,0.18894 12.6211,0.24805 5.62433,0.0591 9.83287,0.14082 12.62304,0.24609 9.86115,0.37206 17.1294,0.9901 21.80469,1.85547 1.06443,0.19326 1.78771,0.29808 2.16992,0.3125 0.80265,0.0303 1.31223,-0.29579 1.5293,-0.97656 0.51994,-2.62142 0.86272,-4.61664 1.0293,-5.98828 0.088,-0.30289 0.33167,-1.1758 0.73047,-2.61524 0.34903,-1.13511 0.53552,-2.00759 0.55859,-2.61914 0.0389,-1.03198 -0.32644,-1.52416 -1.09375,-1.47656 l -0.86133,0.0254 c -12.38015,0.45152 -19.90848,0.62634 -22.58398,0.52539 l -6.3086,-0.17969 c -3.82215,-0.14421 -6.19584,-0.6359 -7.12109,-1.47461 -1.18559,-1.0399 -1.70271,-3.5484 -1.55273,-7.52343 l 0.32031,-8.48438 c 0.12113,-3.21061 0.15769,-4.68408 0.10937,-4.41797 0.28557,-1.48198 1.19338,-2.25161 2.72656,-2.30859 1.68752,-0.0894 5.68564,-0.0133 11.99219,0.22461 7.49142,0.28265 12.30184,0.57858 14.4336,0.88867 2.93296,0.37859 4.62923,0.57644 5.08789,0.59375 1.14664,0.0433 1.7338,-0.27881 1.75976,-0.9668 0.0476,-1.26131 0.25251,-3.14958 0.61524,-5.66211 0.40095,-2.51108 0.62377,-4.37652 0.66992,-5.59961 0.0288,-0.76443 -0.35853,-1.12428 -1.16406,-1.07812 -3.18393,0.18608 -5.94295,0.27324 -8.27735,0.26172 -5.97265,0.0426 -12.70585,-0.0767 -20.19726,-0.35938 l -1.94922,-0.0742 c -0.84232,0.007 -1.49252,0.002 -1.95117,-0.0156 -1.64353,-0.062 -2.61478,-0.69278 -2.91407,-1.89063 -0.10024,-0.38654 -0.10554,-1.74466 -0.0176,-4.07617 l 0.32226,-8.54297 c 0.12546,-3.32527 0.60508,-5.39449 1.43945,-6.20508 0.8726,-0.80914 2.87561,-1.1534 6.00977,-1.03515 3.32527,0.12546 8.26845,0.50255 14.82812,1.13281 6.59935,0.59348 11.52266,0.95164 14.77149,1.07422 0.84087,0.0317 1.27738,-0.39239 1.31055,-1.27148 0.0461,-1.22309 -0.23732,-4.37175 -0.84961,-9.44727 -0.11107,-1.11419 -1.06297,-1.70566 -2.85938,-1.77344 -2.56084,-0.0966 -6.40575,-0.16472 -11.5332,-0.20508 -5.08923,-0.0389 -8.91377,-0.1065 -11.47461,-0.20312 -2.67551,-0.10095 -6.68601,-0.32881 -12.03125,-0.68359 -5.34524,-0.35478 -9.35575,-0.58265 -12.03125,-0.6836 -0.3849,-0.0145 -0.6246,0.10146 -0.86524,0.21485 -0.0134,-0.003 -0.0157,-0.009 -0.0293,-0.0117 l -8.92383,-1.59571 c -0.52712,-0.0943 -4.57492,3.96091 -12.14258,12.16602 -7.66989,8.34225 -11.79098,12.59828 -12.36523,12.76758 -0.39795,-0.38201 -0.66747,-0.72231 -0.8086,-1.01953 -5.17417,-12.34883 -9.03347,-21.6267 -11.57617,-27.83203 -0.89511,-1.94743 -1.43674,-2.93704 -1.625,-2.97071 -1.05424,-0.18853 -2.6296,-0.50857 -4.72461,-0.96094 -2.09501,-0.45236 -3.66842,-0.77435 -4.72265,-0.96289 -1.01659,-0.1818 -1.57175,-0.008 -1.66602,0.51954 l -0.0156,0.0918 c -1.06881,-0.42155 -1.97808,-0.76492 -3.55469,-1.4375 -2.39559,-1.02436 -4.206,-1.75707 -5.42969,-2.19726 -0.64783,-0.23305 -1.49427,0.2554 -2.53906,1.46484 -16.93397,19.84191 -29.94558,34.71305 -39.03516,44.61328 -2.22345,2.45202 -3.51509,3.61385 -3.875,3.48438 -0.28792,-0.10358 -0.53537,-2.18427 -0.74219,-6.24219 -0.85055,-17.29694 -2.18583,-37.08691 -4.00781,-59.36719 -0.11701,-1.70867 -0.35689,-2.62639 -0.7168,-2.75586 -2.48336,-0.89334 -6.28821,-1.89681 -11.41601,-3.00976 -0.86663,-0.18981 -1.42198,0.0564 -1.66797,0.74023 -1.20433,3.34786 -3.04658,9.10347 -4.99805,15.26758 0.64138,-3.78207 0.52035,-7.58907 -0.40039,-11.42188 -1.84977,-7.68076 -6.43703,-13.62744 -13.76562,-17.83984 -1.55857,-0.89585 -3.93553,-2.17298 -7.12891,-3.83203 -3.19338,-1.65906 -5.56838,-2.93618 -7.12695,-3.83203 -1.82386,-1.04834 -4.53537,-2.62751 -8.13086,-4.73828 -3.56233,-2.09171 -6.2386,-3.65237 -8.0293,-4.68164 -0.44767,-0.25732 -0.83196,-0.35732 -1.15234,-0.29883 z m 6.98633,18.01172 c 0.28513,-0.18905 2.74186,0.86983 7.37109,3.17773 4.06549,1.98387 6.86131,3.41423 8.38672,4.29102 4.90784,2.82097 7.85773,6.59036 8.85156,11.30859 0.97059,4.52841 0.0271,9.27975 -2.83203,14.25391 -2.68755,4.6757 -6.03237,7.69374 -10.03516,9.05468 -4.24483,1.39829 -8.68948,0.76419 -13.33203,-1.90429 -8.29026,-4.76516 -13.24127,-7.85448 -14.85547,-9.26758 -0.63424,-0.58514 -0.86685,-1.02772 -0.69531,-1.32617 0.80055,-1.39277 1.95152,-3.51081 3.45313,-6.35352 1.53477,-2.82365 2.70336,-4.93145 3.5039,-6.32422 6.32813,-11.00947 9.72274,-16.64565 10.1836,-16.91015 z" />
  <path
     style="display:none;fill:none;stroke:#000000;stroke-width:0.91557997px"
     inkscape:connector-curvature="0"
     display="none"
     d="m 81.805,556.56 c 75.216,47.648 164.16,73.352 253.19,73.172 89.156,-0.17961 178.11,-26.311 253.19,-74.382"
     id="path5117" />
</svg>
